<svg xmlns="http://www.w3.org/2000/svg" xmlns:svg="http://www.w3.org/2000/svg" id="svg13001" width="3210" height="1810" version="1.1"><defs id="defs13003"><marker id="Arrow1Sstart" orient="auto" refX="0" refY="0" style="overflow:visible"><path id="path6959" d="M 0,0 5,-5 -12.5,0 5,5 0,0 z" style="fill-rule:evenodd;stroke:#000;stroke-width:1pt" transform="matrix(0.2,0,0,0.2,1.2,0)"/></marker><marker id="Arrow1Send-3" orient="auto" refX="0" refY="0" style="overflow:visible"><path id="path3780-60" d="M 0,0 5,-5 -12.5,0 5,5 0,0 z" style="fill-rule:evenodd;stroke:#000;stroke-width:1pt" transform="matrix(-0.2,0,0,-0.2,-1.2,0)"/></marker><marker id="marker12773" orient="auto" refX="0" refY="0" style="overflow:visible"><path id="path12775" d="M 0,0 5,-5 -12.5,0 5,5 0,0 z" style="fill-rule:evenodd;stroke:#000;stroke-width:1pt" transform="matrix(0.2,0,0,0.2,1.2,0)"/></marker><marker id="marker12777" orient="auto" refX="0" refY="0" style="overflow:visible"><path id="path12779" d="M 0,0 5,-5 -12.5,0 5,5 0,0 z" style="fill-rule:evenodd;stroke:#000;stroke-width:1pt" transform="matrix(-0.2,0,0,-0.2,-1.2,0)"/></marker><marker id="marker12781" orient="auto" refX="0" refY="0" style="overflow:visible"><path id="path12783" d="M 0,0 5,-5 -12.5,0 5,5 0,0 z" style="fill-rule:evenodd;stroke:#000;stroke-width:1pt" transform="matrix(0.2,0,0,0.2,1.2,0)"/></marker><marker id="marker12785" orient="auto" refX="0" refY="0" style="overflow:visible"><path id="path12787" d="M 0,0 5,-5 -12.5,0 5,5 0,0 z" style="fill-rule:evenodd;stroke:#000;stroke-width:1pt" transform="matrix(-0.2,0,0,-0.2,-1.2,0)"/></marker><marker id="marker12789" orient="auto" refX="0" refY="0" style="overflow:visible"><path id="path12791" d="M 0,0 5,-5 -12.5,0 5,5 0,0 z" style="fill-rule:evenodd;stroke:#000;stroke-width:1pt" transform="matrix(0.2,0,0,0.2,1.2,0)"/></marker><marker id="marker12793" orient="auto" refX="0" refY="0" style="overflow:visible"><path id="path12795" d="M 0,0 5,-5 -12.5,0 5,5 0,0 z" style="fill-rule:evenodd;stroke:#000;stroke-width:1pt" transform="matrix(-0.2,0,0,-0.2,-1.2,0)"/></marker><marker id="marker12797" orient="auto" refX="0" refY="0" style="overflow:visible"><path id="path12799" d="M 0,0 5,-5 -12.5,0 5,5 0,0 z" style="fill-rule:evenodd;stroke:#000;stroke-width:1pt" transform="matrix(0.2,0,0,0.2,1.2,0)"/></marker><marker id="marker12801" orient="auto" refX="0" refY="0" style="overflow:visible"><path id="path12803" d="M 0,0 5,-5 -12.5,0 5,5 0,0 z" style="fill-rule:evenodd;stroke:#000;stroke-width:1pt" transform="matrix(-0.2,0,0,-0.2,-1.2,0)"/></marker><marker id="marker12805" orient="auto" refX="0" refY="0" style="overflow:visible"><path id="path12807" d="M 0,0 5,-5 -12.5,0 5,5 0,0 z" style="fill-rule:evenodd;stroke:#000;stroke-width:1pt" transform="matrix(0.2,0,0,0.2,1.2,0)"/></marker><marker id="marker12809" orient="auto" refX="0" refY="0" style="overflow:visible"><path id="path12811" d="M 0,0 5,-5 -12.5,0 5,5 0,0 z" style="fill-rule:evenodd;stroke:#000;stroke-width:1pt" transform="matrix(-0.2,0,0,-0.2,-1.2,0)"/></marker><marker id="marker12813" orient="auto" refX="0" refY="0" style="overflow:visible"><path id="path12815" d="M 0,0 5,-5 -12.5,0 5,5 0,0 z" style="fill-rule:evenodd;stroke:#000;stroke-width:1pt" transform="matrix(0.2,0,0,0.2,1.2,0)"/></marker><marker id="marker12817" orient="auto" refX="0" refY="0" style="overflow:visible"><path id="path12819" d="M 0,0 5,-5 -12.5,0 5,5 0,0 z" style="fill-rule:evenodd;stroke:#000;stroke-width:1pt" transform="matrix(-0.2,0,0,-0.2,-1.2,0)"/></marker><marker id="Arrow1Send" orient="auto" refX="0" refY="0" style="overflow:visible"><path id="path3780" d="M 0,0 5,-5 -12.5,0 5,5 0,0 z" style="fill-rule:evenodd;stroke:#000;stroke-width:1pt" transform="matrix(-0.2,0,0,-0.2,-1.2,0)"/></marker><marker id="Arrow1Mend" orient="auto" refX="0" refY="0" style="overflow:visible"><path id="path3774" d="M 0,0 5,-5 -12.5,0 5,5 0,0 z" style="fill-rule:evenodd;stroke:#000;stroke-width:1pt" transform="matrix(-0.4,0,0,-0.4,-4,0)"/></marker><marker id="marker12825" orient="auto" refX="0" refY="0" style="overflow:visible"><path id="path12827" d="M 0,0 5,-5 -12.5,0 5,5 0,0 z" style="fill-rule:evenodd;stroke:#000;stroke-width:1pt" transform="matrix(-0.2,0,0,-0.2,-1.2,0)"/></marker><marker id="marker12829" orient="auto" refX="0" refY="0" style="overflow:visible"><path id="path12831" d="M 0,0 5,-5 -12.5,0 5,5 0,0 z" style="fill-rule:evenodd;stroke:#000;stroke-width:1pt" transform="matrix(-0.2,0,0,-0.2,-1.2,0)"/></marker><marker id="marker12833" orient="auto" refX="0" refY="0" style="overflow:visible"><path id="path12835" d="M 0,0 5,-5 -12.5,0 5,5 0,0 z" style="fill-rule:evenodd;stroke:#000;stroke-width:1pt" transform="matrix(-0.2,0,0,-0.2,-1.2,0)"/></marker><marker id="marker12837" orient="auto" refX="0" refY="0" style="overflow:visible"><path id="path12839" d="M 0,0 5,-5 -12.5,0 5,5 0,0 z" style="fill-rule:evenodd;stroke:#000;stroke-width:1pt" transform="matrix(-0.2,0,0,-0.2,-1.2,0)"/></marker><marker id="marker12841" orient="auto" refX="0" refY="0" style="overflow:visible"><path id="path12843" d="M 0,0 5,-5 -12.5,0 5,5 0,0 z" style="fill-rule:evenodd;stroke:#000;stroke-width:1pt" transform="matrix(-0.2,0,0,-0.2,-1.2,0)"/></marker><marker id="marker12845" orient="auto" refX="0" refY="0" style="overflow:visible"><path id="path12847" d="M 0,0 5,-5 -12.5,0 5,5 0,0 z" style="fill-rule:evenodd;stroke:#000;stroke-width:1pt" transform="matrix(-0.2,0,0,-0.2,-1.2,0)"/></marker><marker id="marker12849" orient="auto" refX="0" refY="0" style="overflow:visible"><path id="path12851" d="M 0,0 5,-5 -12.5,0 5,5 0,0 z" style="fill-rule:evenodd;stroke:#000;stroke-width:1pt" transform="matrix(-0.2,0,0,-0.2,-1.2,0)"/></marker><marker id="marker12853" orient="auto" refX="0" refY="0" style="overflow:visible"><path id="path12855" d="M 0,0 5,-5 -12.5,0 5,5 0,0 z" style="fill-rule:evenodd;stroke:#000;stroke-width:1pt" transform="matrix(-0.2,0,0,-0.2,-1.2,0)"/></marker><marker id="marker12857" orient="auto" refX="0" refY="0" style="overflow:visible"><path id="path12859" d="M 0,0 5,-5 -12.5,0 5,5 0,0 z" style="fill-rule:evenodd;stroke:#000;stroke-width:1pt" transform="matrix(-0.2,0,0,-0.2,-1.2,0)"/></marker><marker id="marker12861" orient="auto" refX="0" refY="0" style="overflow:visible"><path id="path12863" d="M 0,0 5,-5 -12.5,0 5,5 0,0 z" style="fill-rule:evenodd;stroke:#000;stroke-width:1pt" transform="matrix(-0.2,0,0,-0.2,-1.2,0)"/></marker></defs><metadata id="metadata13006"/><g id="layer1" transform="translate(289.5625,479.5)"><rect style="opacity:.6;fill:#0040ff;fill-opacity:.1254902;stroke:#000;stroke-width:10;stroke-linecap:round;stroke-linejoin:round;stroke-miterlimit:4;stroke-opacity:.59817349;stroke-dasharray:none;stroke-dashoffset:0" id="rect2987" width="1400" height="1200" x="215.429" y="-174.495"/><rect style="opacity:.6;fill:red;fill-opacity:.22352941;stroke:#000;stroke-width:8.18465805;stroke-linecap:round;stroke-linejoin:round;stroke-miterlimit:4;stroke-opacity:.59817349;stroke-dasharray:none;stroke-dashoffset:0" id="rect2989" width="701.815" height="66.815" x="2018.271" y="-157.903"/><path style="fill:none;stroke:#000;stroke-width:25;stroke-linecap:butt;stroke-linejoin:miter;stroke-miterlimit:4;stroke-opacity:1;stroke-dasharray:none;marker-start:none;marker-end:url(#Arrow1Send)" id="path2991" d="m 1590.4286,-24.495264 c 300,0 300,0 300,0"/><rect style="opacity:.6;fill:#00f;fill-opacity:.24657533;stroke:#000;stroke-width:5;stroke-linecap:round;stroke-linejoin:round;stroke-miterlimit:4;stroke-opacity:1;stroke-dasharray:none;stroke-dashoffset:0" id="rect4996-9-1-7" width="60" height="40" x="51.2" y="-127.02"/><path transform="matrix(5,0,0,5,-648.79973,-1308.6283)" style="opacity:.6;fill:#0f0;fill-opacity:.24200918;stroke:#000;stroke-width:1;stroke-linecap:round;stroke-linejoin:round;stroke-miterlimit:4;stroke-opacity:1;stroke-dasharray:none;stroke-dashoffset:0" id="path4998-4" d="m 152,258.36218 c 0,3.31371 -2.68629,6 -6,6 -3.31371,0 -6,-2.68629 -6,-6 0,-3.31371 2.68629,-6 6,-6 3.31371,0 6,2.68629 6,6 z"/><path transform="matrix(5,0,0,5,-748.79973,-1308.6283)" style="opacity:.6;fill:#0f0;fill-opacity:.24200918;stroke:#000;stroke-width:1;stroke-linecap:round;stroke-linejoin:round;stroke-miterlimit:4;stroke-opacity:1;stroke-dasharray:none;stroke-dashoffset:0" id="path4998-4-5" d="m 152,258.36218 c 0,3.31371 -2.68629,6 -6,6 -3.31371,0 -6,-2.68629 -6,-6 0,-3.31371 2.68629,-6 6,-6 3.31371,0 6,2.68629 6,6 z"/><rect style="opacity:.6;fill:#00f;fill-opacity:.24657533;stroke:#000;stroke-width:5;stroke-linecap:round;stroke-linejoin:round;stroke-miterlimit:4;stroke-opacity:1;stroke-dasharray:none;stroke-dashoffset:0" id="rect4996-9-1-7-1" width="60" height="40" x="-48.8" y="52.98"/><path style="fill:none;stroke:#000;stroke-width:5px;stroke-linecap:butt;stroke-linejoin:miter;stroke-opacity:1" id="path3191" d="m -18.799729,13.182613 0,39.797123"/><path style="fill:none;stroke:#000;stroke-width:5px;stroke-linecap:butt;stroke-linejoin:miter;stroke-opacity:1" id="path3193" d="M 58.878744,3.226702 3.4726997,52.979736"/><path style="fill:none;stroke:#000;stroke-width:5px;stroke-linecap:butt;stroke-linejoin:miter;stroke-opacity:1" id="path3195" d="m 81.200271,-46.817387 0,-40.202877"/><rect style="opacity:.6;fill:#00f;fill-opacity:.24657533;stroke:#000;stroke-width:5;stroke-linecap:round;stroke-linejoin:round;stroke-miterlimit:4;stroke-opacity:1;stroke-dasharray:none;stroke-dashoffset:0" id="rect4996-9-1-7-17" width="60" height="40" x="-48.8" y="-127.02"/><path style="fill:none;stroke:#000;stroke-width:5px;stroke-linecap:butt;stroke-linejoin:miter;stroke-opacity:1" id="path3215" d="m -18.799729,-87.020264 0,40.202877"/><path transform="matrix(5,0,0,5,-65.999933,-1069.8774)" style="opacity:.6;fill:#0f0;fill-opacity:.24200918;stroke:#000;stroke-width:1;stroke-linecap:round;stroke-linejoin:round;stroke-miterlimit:4;stroke-opacity:1;stroke-dasharray:none;stroke-dashoffset:0" id="path4998-6" d="m 152,258.36218 c 0,3.31371 -2.68629,6 -6,6 -3.31371,0 -6,-2.68629 -6,-6 0,-3.31371 2.68629,-6 6,-6 3.31371,0 6,2.68629 6,6 z"/><path transform="matrix(5,0,0,5,34.000067,-1069.8774)" style="opacity:.6;fill:#0f0;fill-opacity:.24200918;stroke:#000;stroke-width:1;stroke-linecap:round;stroke-linejoin:round;stroke-miterlimit:4;stroke-opacity:1;stroke-dasharray:none;stroke-dashoffset:0" id="path4998-3-8" d="m 152,258.36218 c 0,3.31371 -2.68629,6 -6,6 -3.31371,0 -6,-2.68629 -6,-6 0,-3.31371 2.68629,-6 6,-6 3.31371,0 6,2.68629 6,6 z"/><path transform="matrix(5,0,0,5,134.00007,-1069.8774)" style="opacity:.6;fill:#0f0;fill-opacity:.24200918;stroke:#000;stroke-width:1;stroke-linecap:round;stroke-linejoin:round;stroke-miterlimit:4;stroke-opacity:1;stroke-dasharray:none;stroke-dashoffset:0" id="path4998-9-1" d="m 152,258.36218 c 0,3.31371 -2.68629,6 -6,6 -3.31371,0 -6,-2.68629 -6,-6 0,-3.31371 2.68629,-6 6,-6 3.31371,0 6,2.68629 6,6 z"/><rect style="opacity:.6;fill:#00f;fill-opacity:.24657533;stroke:#000;stroke-width:5;stroke-linecap:round;stroke-linejoin:round;stroke-miterlimit:4;stroke-opacity:1;stroke-dasharray:none;stroke-dashoffset:0" id="rect4996-67" width="60" height="40" x="594" y="291.934"/><rect style="opacity:.6;fill:#00f;fill-opacity:.24657533;stroke:#000;stroke-width:5;stroke-linecap:round;stroke-linejoin:round;stroke-miterlimit:4;stroke-opacity:1;stroke-dasharray:none;stroke-dashoffset:0" id="rect4996-1-7" width="60" height="40" x="674" y="291.934"/><rect style="opacity:.6;fill:#00f;fill-opacity:.24657533;stroke:#000;stroke-width:5;stroke-linecap:round;stroke-linejoin:round;stroke-miterlimit:4;stroke-opacity:1;stroke-dasharray:none;stroke-dashoffset:0" id="rect4996-6-3" width="60" height="40" x="794" y="291.934"/><rect style="opacity:.6;fill:#00f;fill-opacity:.24657533;stroke:#000;stroke-width:5;stroke-linecap:round;stroke-linejoin:round;stroke-miterlimit:4;stroke-opacity:1;stroke-dasharray:none;stroke-dashoffset:0" id="rect4996-0-6" width="60" height="40" x="874" y="291.934"/><rect style="opacity:.6;fill:#00f;fill-opacity:.24657533;stroke:#000;stroke-width:5;stroke-linecap:round;stroke-linejoin:round;stroke-miterlimit:4;stroke-opacity:1;stroke-dasharray:none;stroke-dashoffset:0" id="rect4996-9-4" width="60" height="40" x="634" y="111.73"/><rect style="opacity:.6;fill:#00f;fill-opacity:.24657533;stroke:#000;stroke-width:5;stroke-linecap:round;stroke-linejoin:round;stroke-miterlimit:4;stroke-opacity:1;stroke-dasharray:none;stroke-dashoffset:0" id="rect4996-65-3" width="60" height="40" x="734" y="111.73"/><rect style="opacity:.6;fill:#00f;fill-opacity:.24657533;stroke:#000;stroke-width:5;stroke-linecap:round;stroke-linejoin:round;stroke-miterlimit:4;stroke-opacity:1;stroke-dasharray:none;stroke-dashoffset:0" id="rect4996-00-3" width="60" height="40" x="834" y="111.73"/><path transform="matrix(5,0,0,5,34.000067,-1249.8774)" style="opacity:.6;fill:#0f0;fill-opacity:.24200918;stroke:#000;stroke-width:1;stroke-linecap:round;stroke-linejoin:round;stroke-miterlimit:4;stroke-opacity:1;stroke-dasharray:none;stroke-dashoffset:0" id="path4998-1-1" d="m 152,258.36218 c 0,3.31371 -2.68629,6 -6,6 -3.31371,0 -6,-2.68629 -6,-6 0,-3.31371 2.68629,-6 6,-6 3.31371,0 6,2.68629 6,6 z"/><rect style="opacity:.6;fill:#00f;fill-opacity:.24657533;stroke:#000;stroke-width:5;stroke-linecap:round;stroke-linejoin:round;stroke-miterlimit:4;stroke-opacity:1;stroke-dasharray:none;stroke-dashoffset:0" id="rect4996-9-1-77" width="60" height="40" x="734" y="-68.27"/><path style="fill:none;stroke:#000;stroke-width:5px;stroke-linecap:butt;stroke-linejoin:miter;stroke-opacity:1" id="path5208-1" d="M 632.88899,291.93359 651.8129,249.35471"/><path style="fill:none;stroke:#000;stroke-width:5px;stroke-linecap:butt;stroke-linejoin:miter;stroke-opacity:1" id="path5210-9" d="m 676.18726,249.3547 18.92397,42.57889"/><path style="fill:none;stroke:#000;stroke-width:5px;stroke-linecap:butt;stroke-linejoin:miter;stroke-opacity:1" id="path5212-5" d="m 704.00012,311.93359 0,0"/><path style="fill:none;stroke:#000;stroke-width:5px;stroke-linecap:butt;stroke-linejoin:miter;stroke-opacity:1" id="path5214-4" d="m 747.35732,246.89768 -30.02389,45.03591"/><path style="fill:none;stroke:#000;stroke-width:5px;stroke-linecap:butt;stroke-linejoin:miter;stroke-opacity:1" id="path5216-0" d="M 810.66679,291.93359 780.64283,246.89766"/><path style="fill:none;stroke:#000;stroke-width:5px;stroke-linecap:butt;stroke-linejoin:miter;stroke-opacity:1" id="path5218-7" d="M 832.88899,291.93359 851.8129,249.35471"/><path style="fill:none;stroke:#000;stroke-width:5px;stroke-linecap:butt;stroke-linejoin:miter;stroke-opacity:1" id="path5220-2" d="m 876.18725,249.3547 18.92393,42.57889"/><path style="fill:none;stroke:#000;stroke-width:5px;stroke-linecap:butt;stroke-linejoin:miter;stroke-opacity:1" id="path5222-9" d="m 864.00009,191.93351 2e-5,-40.20316"/><path style="fill:none;stroke:#000;stroke-width:5px;stroke-linecap:butt;stroke-linejoin:miter;stroke-opacity:1" id="path3032-3" d="m 664.00011,151.73035 -2e-5,40.20316"/><path style="fill:none;stroke:#000;stroke-width:5px;stroke-linecap:butt;stroke-linejoin:miter;stroke-opacity:1" id="path3034-7" d="m 764.00009,191.93351 2e-5,-40.20316"/><path style="fill:#00f;fill-opacity:.24657533;stroke:#000;stroke-width:5px;stroke-linecap:butt;stroke-linejoin:miter;stroke-opacity:1" id="path3036-5" d="m 764.00011,111.73035 -2e-5,-39.796837"/><path style="fill:none;stroke:#000;stroke-width:5px;stroke-linecap:butt;stroke-linejoin:miter;stroke-opacity:1" id="path3038-0" d="m 741.67851,61.977572 -55.4059,49.752778"/><path style="fill:none;stroke:#000;stroke-width:5px;stroke-linecap:butt;stroke-linejoin:miter;stroke-opacity:1" id="path3042-4" d="m 786.32163,61.97756 55.40598,49.75279"/><path style="fill:none;stroke:#000;stroke-width:5px;stroke-linecap:butt;stroke-linejoin:miter;stroke-opacity:1" id="path3048-1" d="m 764.00009,11.933513 2e-5,-40.203166"/><path transform="matrix(5,0,0,5,134.00007,-1249.8774)" style="opacity:.6;fill:#0f0;fill-opacity:.24200918;stroke:#000;stroke-width:1;stroke-linecap:round;stroke-linejoin:round;stroke-miterlimit:4;stroke-opacity:1;stroke-dasharray:none;stroke-dashoffset:0" id="path4998-1-4-3" d="m 152,258.36218 c 0,3.31371 -2.68629,6 -6,6 -3.31371,0 -6,-2.68629 -6,-6 0,-3.31371 2.68629,-6 6,-6 3.31371,0 6,2.68629 6,6 z"/><path style="fill:none;stroke:#000;stroke-width:5px;stroke-linecap:butt;stroke-linejoin:miter;stroke-opacity:1" id="path3088-6" d="m 864.00009,71.933513 2e-5,39.796837"/><rect style="opacity:.6;fill:#00f;fill-opacity:.24657533;stroke:#000;stroke-width:5;stroke-linecap:round;stroke-linejoin:round;stroke-miterlimit:4;stroke-opacity:1;stroke-dasharray:none;stroke-dashoffset:0" id="rect4996-9-1-4-0" width="60" height="40" x="834" y="-68.27"/><path style="fill:none;stroke:#000;stroke-width:5px;stroke-linecap:butt;stroke-linejoin:miter;stroke-opacity:1" id="path3108-9" d="m 864.00011,-28.269653 -2e-5,40.203166"/><rect style="opacity:.6;fill:#00f;fill-opacity:.24657533;stroke:#000;stroke-width:5;stroke-linecap:round;stroke-linejoin:round;stroke-miterlimit:4;stroke-opacity:1;stroke-dasharray:none;stroke-dashoffset:0" id="rect4996-9-1-4-6-2" width="60" height="40" x="605.429" y="578.516"/><rect style="opacity:.6;fill:#00f;fill-opacity:.24657533;stroke:#000;stroke-width:5;stroke-linecap:round;stroke-linejoin:round;stroke-miterlimit:4;stroke-opacity:1;stroke-dasharray:none;stroke-dashoffset:0" id="rect4996-9-1-4-3-5" width="60" height="40" x="605.429" y="638.516"/><rect style="opacity:.6;fill:#00f;fill-opacity:.24657533;stroke:#000;stroke-width:5;stroke-linecap:round;stroke-linejoin:round;stroke-miterlimit:4;stroke-opacity:1;stroke-dasharray:none;stroke-dashoffset:0" id="rect4996-9-1-4-5-5" width="60" height="40" x="605.429" y="698.516"/><rect style="opacity:.6;fill:#00f;fill-opacity:.24657533;stroke:#000;stroke-width:5;stroke-linecap:round;stroke-linejoin:round;stroke-miterlimit:4;stroke-opacity:1;stroke-dasharray:none;stroke-dashoffset:0" id="rect4996-9-1-4-4-0" width="60" height="40" x="605.429" y="758.516"/><rect style="opacity:.6;fill:#00f;fill-opacity:.24657533;stroke:#000;stroke-width:5;stroke-linecap:round;stroke-linejoin:round;stroke-miterlimit:4;stroke-opacity:1;stroke-dasharray:none;stroke-dashoffset:0" id="rect4996-9-1-4-2-0" width="60" height="40" x="605.429" y="818.516"/><rect style="opacity:.6;fill:#00f;fill-opacity:.24657533;stroke:#000;stroke-width:5;stroke-linecap:round;stroke-linejoin:round;stroke-miterlimit:4;stroke-opacity:1;stroke-dasharray:none;stroke-dashoffset:0" id="rect4996-9-1-4-7-3" width="60" height="40" x="605.429" y="878.516"/><text xml:space="preserve" style="font-size:75px;font-style:normal;font-variant:normal;font-weight:400;font-stretch:normal;text-align:center;line-height:125%;letter-spacing:0;word-spacing:0;text-anchor:middle;fill:#000;fill-opacity:1;stroke:none;font-family:ubuntu;-inkscape-font-specification:ubuntu" id="text3422-1-7" x="1009" y="625.505"><tspan id="tspan3424-2-6" x="1009" y="625.505" style="font-size:50px">192.168.0.1</tspan></text><rect style="opacity:.6;fill:#000;fill-opacity:.10958904;stroke:#000;stroke-width:2.5;stroke-linecap:round;stroke-linejoin:round;stroke-miterlimit:4;stroke-opacity:1;stroke-dasharray:none;stroke-dashoffset:0" id="rect3467-9" width="280" height="60" x="870.908" y="578.719"/><text xml:space="preserve" style="font-size:75px;font-style:normal;font-variant:normal;font-weight:400;font-stretch:normal;text-align:center;line-height:125%;letter-spacing:0;word-spacing:0;text-anchor:middle;fill:#000;fill-opacity:1;stroke:none;font-family:ubuntu;-inkscape-font-specification:ubuntu" id="text3422-1-0-3" x="1009" y="725.505"><tspan id="tspan3424-2-7-5" x="1009" y="725.505" style="font-size:50px">192.168.0.2</tspan></text><rect style="opacity:.6;fill:#000;fill-opacity:.10958904;stroke:#000;stroke-width:2.5;stroke-linecap:round;stroke-linejoin:round;stroke-miterlimit:4;stroke-opacity:1;stroke-dasharray:none;stroke-dashoffset:0" id="rect3467-4-8" width="280" height="60" x="870.908" y="678.719"/><text xml:space="preserve" style="font-size:75px;font-style:normal;font-variant:normal;font-weight:400;font-stretch:normal;text-align:center;line-height:125%;letter-spacing:0;word-spacing:0;text-anchor:middle;fill:#000;fill-opacity:1;stroke:none;font-family:ubuntu;-inkscape-font-specification:ubuntu" id="text3422-1-4-3" x="1009" y="825.505"><tspan id="tspan3424-2-5-4" x="1009" y="825.505" style="font-size:50px">192.168.0.3</tspan></text><rect style="opacity:.6;fill:#000;fill-opacity:.10958904;stroke:#000;stroke-width:2.5;stroke-linecap:round;stroke-linejoin:round;stroke-miterlimit:4;stroke-opacity:1;stroke-dasharray:none;stroke-dashoffset:0" id="rect3467-3-1" width="280" height="60" x="870.908" y="778.719"/><text xml:space="preserve" style="font-size:75px;font-style:normal;font-variant:normal;font-weight:400;font-stretch:normal;text-align:center;line-height:125%;letter-spacing:0;word-spacing:0;text-anchor:middle;fill:#000;fill-opacity:1;stroke:none;font-family:ubuntu;-inkscape-font-specification:ubuntu" id="text3422-1-1-1" x="1009" y="925.505"><tspan id="tspan3424-2-57-4" x="1009" y="925.505" style="font-size:50px">192.168.0.4</tspan></text><rect style="opacity:.6;fill:#000;fill-opacity:.10958904;stroke:#000;stroke-width:2.5;stroke-linecap:round;stroke-linejoin:round;stroke-miterlimit:4;stroke-opacity:1;stroke-dasharray:none;stroke-dashoffset:0" id="rect3467-2-5" width="280" height="60" x="870.908" y="878.719"/><path style="fill:none;stroke:#000;stroke-width:5px;stroke-linecap:butt;stroke-linejoin:miter;stroke-opacity:1" id="path4380-4" d="m 665.42865,899.3314 205.47906,5.58335"/><path style="fill:none;stroke:#000;stroke-width:5px;stroke-linecap:butt;stroke-linejoin:miter;stroke-opacity:1" id="path4382-6" d="m 665.42865,780.92936 205.47906,16.52825"/><path style="fill:none;stroke:#000;stroke-width:5px;stroke-linecap:butt;stroke-linejoin:miter;stroke-opacity:1" id="path4384-9" d="M 665.42865,836.13549 870.90771,819.82903"/><path style="fill:none;stroke:#000;stroke-width:5px;stroke-linecap:butt;stroke-linejoin:miter;stroke-opacity:1" id="path4386-2" d="m 665.42865,717.73345 205.47906,-5.36156"/><path style="fill:none;stroke:#000;stroke-width:5px;stroke-linecap:butt;stroke-linejoin:miter;stroke-opacity:1" id="path4388-9" d="m 665.42865,662.52732 205.47906,27.47315"/><path style="fill:none;stroke:#000;stroke-width:5px;stroke-linecap:butt;stroke-linejoin:miter;stroke-opacity:1" id="path4390-6" d="M 665.42865,654.53753 870.90771,627.28617"/><path style="fill:none;stroke:#000;stroke-width:5px;stroke-linecap:butt;stroke-linejoin:miter;stroke-opacity:1" id="path4392-8" d="M 870.90771,604.91475 665.42865,599.3314"/><path style="fill:none;stroke:#000;stroke-width:5px;stroke-linecap:butt;stroke-linejoin:miter;stroke-opacity:1" id="path4394-4" d="M 885.46559,838.71887 665.42865,891.34161"/><path transform="matrix(5,0,0,5,815.42862,-1316.306)" style="opacity:.6;fill:#0f0;fill-opacity:.24200918;stroke:#000;stroke-width:1;stroke-linecap:round;stroke-linejoin:round;stroke-miterlimit:4;stroke-opacity:1;stroke-dasharray:none;stroke-dashoffset:0" id="path4998-41" d="m 152,258.36218 c 0,3.31371 -2.68629,6 -6,6 -3.31371,0 -6,-2.68629 -6,-6 0,-3.31371 2.68629,-6 6,-6 3.31371,0 6,2.68629 6,6 z"/><path transform="matrix(5,0,0,5,715.42862,-1316.306)" style="opacity:.6;fill:#0f0;fill-opacity:.24200918;stroke:#000;stroke-width:1;stroke-linecap:round;stroke-linejoin:round;stroke-miterlimit:4;stroke-opacity:1;stroke-dasharray:none;stroke-dashoffset:0" id="path4998-31" d="m 152,258.36218 c 0,3.31371 -2.68629,6 -6,6 -3.31371,0 -6,-2.68629 -6,-6 0,-3.31371 2.68629,-6 6,-6 3.31371,0 6,2.68629 6,6 z"/><path transform="matrix(5,0,0,5,615.42862,-1316.306)" style="opacity:.6;fill:#0f0;fill-opacity:.24200918;stroke:#000;stroke-width:1;stroke-linecap:round;stroke-linejoin:round;stroke-miterlimit:4;stroke-opacity:1;stroke-dasharray:none;stroke-dashoffset:0" id="path4998-67" d="m 152,258.36218 c 0,3.31371 -2.68629,6 -6,6 -3.31371,0 -6,-2.68629 -6,-6 0,-3.31371 2.68629,-6 6,-6 3.31371,0 6,2.68629 6,6 z"/><rect style="opacity:.6;fill:red;fill-opacity:.22352941;stroke:#000;stroke-width:8.18465805;stroke-linecap:round;stroke-linejoin:round;stroke-miterlimit:4;stroke-opacity:.59817349;stroke-dasharray:none;stroke-dashoffset:0" id="rect2989-7" width="701.815" height="66.815" x="2018.271" y="-57.903"/><rect style="opacity:.6;fill:red;fill-opacity:.22352941;stroke:#000;stroke-width:8.18465805;stroke-linecap:round;stroke-linejoin:round;stroke-miterlimit:4;stroke-opacity:.59817349;stroke-dasharray:none;stroke-dashoffset:0" id="rect2989-5" width="701.815" height="66.815" x="2018.271" y="42.097"/><path style="fill:none;stroke:#000;stroke-width:12.5;stroke-linecap:butt;stroke-linejoin:miter;stroke-miterlimit:4;stroke-opacity:1;stroke-dasharray:none;marker-start:none;marker-end:url(#Arrow1Send)" id="path4642" d="m 1876.3125,-26.869264 c 140,-99.999996 140,-99.999996 140,-99.999996"/><path style="fill:none;stroke:#000;stroke-width:12.5;stroke-linecap:butt;stroke-linejoin:miter;stroke-miterlimit:4;stroke-opacity:1;stroke-dasharray:none;marker-end:url(#Arrow1Send)" id="path5226" d="m 1893.5536,-24.495264 c 120,0 120,0 120,0"/><path style="fill:none;stroke:#000;stroke-width:12.5;stroke-linecap:butt;stroke-linejoin:miter;stroke-miterlimit:4;stroke-opacity:1;stroke-dasharray:none;marker-end:url(#Arrow1Send)" id="path5422" d="m 1876.3125,-16.262764 c 140,80 140,80 140,80"/><text xml:space="preserve" style="font-size:75px;font-style:normal;font-variant:normal;font-weight:400;font-stretch:normal;text-align:center;line-height:125%;letter-spacing:0;word-spacing:0;text-anchor:middle;fill:#000;fill-opacity:1;stroke:none;font-family:ubuntu;-inkscape-font-specification:ubuntu" id="text5618" x="1815.429" y="-194.495"><tspan id="tspan5620" x="1815.429" y="-194.495">worker queues</tspan></text><text xml:space="preserve" style="font-size:59.88628006px;font-style:normal;font-variant:normal;font-weight:400;font-stretch:normal;text-align:center;line-height:125%;letter-spacing:0;word-spacing:0;text-anchor:middle;fill:#000;fill-opacity:1;stroke:none;font-family:ubuntu;-inkscape-font-specification:ubuntu" id="text5622" x="2395.429" y="5.505"><tspan id="tspan5624" x="2395.429" y="5.505">worker core</tspan></text><text xml:space="preserve" style="font-size:59.88628006px;font-style:normal;font-variant:normal;font-weight:400;font-stretch:normal;text-align:center;line-height:125%;letter-spacing:0;word-spacing:0;text-anchor:middle;fill:#000;fill-opacity:1;stroke:none;font-family:ubuntu;-inkscape-font-specification:ubuntu" id="text5622-1" x="2395.429" y="-94.495"><tspan id="tspan5624-2" x="2395.429" y="-94.495">worker core</tspan></text><text xml:space="preserve" style="font-size:59.88628006px;font-style:normal;font-variant:normal;font-weight:400;font-stretch:normal;text-align:center;line-height:125%;letter-spacing:0;word-spacing:0;text-anchor:middle;fill:#000;fill-opacity:1;stroke:none;font-family:ubuntu;-inkscape-font-specification:ubuntu" id="text5622-0" x="2395.429" y="105.505"><tspan id="tspan5624-1" x="2395.429" y="105.505">worker core</tspan></text><rect style="opacity:.6;fill:red;fill-opacity:.22352941;stroke:#000;stroke-width:8.18465805;stroke-linecap:round;stroke-linejoin:round;stroke-miterlimit:4;stroke-opacity:.59817349;stroke-dasharray:none;stroke-dashoffset:0" id="rect2989-2" width="701.815" height="66.815" x="2018.271" y="242.097"/><path style="fill:none;stroke:#000;stroke-width:25;stroke-linecap:butt;stroke-linejoin:miter;stroke-miterlimit:4;stroke-opacity:1;stroke-dasharray:none;marker-start:none;marker-end:url(#Arrow1Send)" id="path2991-8" d="m 1590.4286,375.50474 c 300,0 300,0 300,0"/><path transform="matrix(5,0,0,5,815.42862,-916.30596)" style="opacity:.6;fill:#0f0;fill-opacity:.24200918;stroke:#000;stroke-width:1;stroke-linecap:round;stroke-linejoin:round;stroke-miterlimit:4;stroke-opacity:1;stroke-dasharray:none;stroke-dashoffset:0" id="path4998-41-0" d="m 152,258.36218 c 0,3.31371 -2.68629,6 -6,6 -3.31371,0 -6,-2.68629 -6,-6 0,-3.31371 2.68629,-6 6,-6 3.31371,0 6,2.68629 6,6 z"/><path transform="matrix(5,0,0,5,715.42862,-916.30596)" style="opacity:.6;fill:#0f0;fill-opacity:.24200918;stroke:#000;stroke-width:1;stroke-linecap:round;stroke-linejoin:round;stroke-miterlimit:4;stroke-opacity:1;stroke-dasharray:none;stroke-dashoffset:0" id="path4998-31-9" d="m 152,258.36218 c 0,3.31371 -2.68629,6 -6,6 -3.31371,0 -6,-2.68629 -6,-6 0,-3.31371 2.68629,-6 6,-6 3.31371,0 6,2.68629 6,6 z"/><rect style="opacity:.6;fill:red;fill-opacity:.22352941;stroke:#000;stroke-width:8.18465805;stroke-linecap:round;stroke-linejoin:round;stroke-miterlimit:4;stroke-opacity:.59817349;stroke-dasharray:none;stroke-dashoffset:0" id="rect2989-7-9" width="701.815" height="66.815" x="2018.271" y="342.097"/><rect style="opacity:.6;fill:red;fill-opacity:.22352941;stroke:#000;stroke-width:8.18465805;stroke-linecap:round;stroke-linejoin:round;stroke-miterlimit:4;stroke-opacity:.59817349;stroke-dasharray:none;stroke-dashoffset:0" id="rect2989-5-8" width="701.815" height="66.815" x="2018.271" y="442.097"/><path style="fill:none;stroke:#000;stroke-width:12.5;stroke-linecap:butt;stroke-linejoin:miter;stroke-miterlimit:4;stroke-opacity:1;stroke-dasharray:none;marker-start:none;marker-end:url(#Arrow1Send)" id="path4642-7" d="m 1876.3125,373.13074 c 140,-100 140,-100 140,-100"/><path style="fill:none;stroke:#000;stroke-width:12.5;stroke-linecap:butt;stroke-linejoin:miter;stroke-miterlimit:4;stroke-opacity:1;stroke-dasharray:none;marker-end:url(#Arrow1Send)" id="path5226-8" d="m 1893.5536,375.50474 c 120,0 120,0 120,0"/><path style="fill:none;stroke:#000;stroke-width:12.5;stroke-linecap:butt;stroke-linejoin:miter;stroke-miterlimit:4;stroke-opacity:1;stroke-dasharray:none;marker-end:url(#Arrow1Send)" id="path5422-7" d="m 1876.3125,383.73724 c 140,80 140,80 140,80"/><text xml:space="preserve" style="font-size:59.88628006px;font-style:normal;font-variant:normal;font-weight:400;font-stretch:normal;text-align:center;line-height:125%;letter-spacing:0;word-spacing:0;text-anchor:middle;fill:#000;fill-opacity:1;stroke:none;font-family:ubuntu;-inkscape-font-specification:ubuntu" id="text5622-5" x="2395.429" y="405.505"><tspan id="tspan5624-4" x="2395.429" y="405.505">worker core</tspan></text><text xml:space="preserve" style="font-size:59.88628006px;font-style:normal;font-variant:normal;font-weight:400;font-stretch:normal;text-align:center;line-height:125%;letter-spacing:0;word-spacing:0;text-anchor:middle;fill:#000;fill-opacity:1;stroke:none;font-family:ubuntu;-inkscape-font-specification:ubuntu" id="text5622-1-1" x="2395.429" y="305.505"><tspan id="tspan5624-2-6" x="2395.429" y="305.505">worker core</tspan></text><text xml:space="preserve" style="font-size:59.88628006px;font-style:normal;font-variant:normal;font-weight:400;font-stretch:normal;text-align:center;line-height:125%;letter-spacing:0;word-spacing:0;text-anchor:middle;fill:#000;fill-opacity:1;stroke:none;font-family:ubuntu;-inkscape-font-specification:ubuntu" id="text5622-0-9" x="2395.429" y="505.505"><tspan id="tspan5624-1-4" x="2395.429" y="505.505">worker core</tspan></text><path style="fill:none;stroke:#000;stroke-width:25;stroke-linecap:butt;stroke-linejoin:miter;stroke-miterlimit:4;stroke-opacity:1;stroke-dasharray:none;marker-start:none;marker-end:url(#Arrow1Send)" id="path2991-1" d="m -16.642433,343.82774 c 300.000003,0 300.000003,0 300.000003,0"/><path style="fill:none;stroke:#000;stroke-width:25.28815269;stroke-linecap:butt;stroke-linejoin:miter;stroke-miterlimit:4;stroke-opacity:1;stroke-dasharray:none;marker-start:none;marker-end:url(#Arrow1Send)" id="path2991-6" d="m 318.83792,595.85574 c -309.8122534,0 -309.8122534,0 -309.8122534,0"/><text xml:space="preserve" style="font-size:75px;font-style:normal;font-variant:normal;font-weight:400;font-stretch:normal;text-align:center;line-height:125%;letter-spacing:0;word-spacing:0;text-anchor:middle;fill:#000;fill-opacity:1;stroke:none;font-family:ubuntu;-inkscape-font-specification:ubuntu" id="text5784" x="39.172" y="221.449"><tspan id="tspan5786" x="47.815" y="221.449">scheduler </tspan><tspan id="tspan6014" x="39.172" y="315.199">queue</tspan></text><text xml:space="preserve" style="font-size:75px;font-style:normal;font-variant:normal;font-weight:400;font-stretch:normal;text-align:center;line-height:125%;letter-spacing:0;word-spacing:0;text-anchor:middle;fill:#000;fill-opacity:1;stroke:none;font-family:ubuntu;-inkscape-font-specification:ubuntu" id="text5788" x="74.528" y="688.14"><tspan id="tspan5790" x="83.17" y="688.14">report </tspan><tspan id="tspan6016" x="74.528" y="781.89">queue</tspan></text><text xml:space="preserve" style="font-size:75px;font-style:normal;font-variant:normal;font-weight:400;font-stretch:normal;text-align:center;line-height:125%;letter-spacing:0;word-spacing:0;text-anchor:middle;fill:#000;fill-opacity:1;stroke:none;font-family:ubuntu;-inkscape-font-specification:ubuntu" id="text6000" x="482.929" y="-16.995"><tspan id="tspan6002" x="482.929" y="-16.995">Computation</tspan><tspan id="tspan6004" x="482.929" y="76.755">graph</tspan></text><text xml:space="preserve" style="font-size:75px;font-style:normal;font-variant:normal;font-weight:400;font-stretch:normal;text-align:center;line-height:125%;letter-spacing:0;word-spacing:0;text-anchor:middle;fill:#000;fill-opacity:1;stroke:none;font-family:ubuntu;-inkscape-font-specification:ubuntu" id="text6006" x="475.429" y="680.505"><tspan id="tspan6008" x="475.429" y="680.505">who</tspan><tspan id="tspan6010" x="475.429" y="774.255">has</tspan><tspan id="tspan6012" x="475.429" y="868.005">what</tspan></text><path style="fill:none;stroke:#000;stroke-width:4;stroke-linecap:butt;stroke-linejoin:miter;stroke-miterlimit:4;stroke-opacity:.31963471;stroke-dasharray:none;marker-end:url(#Arrow1Mend)" id="path6018" d="m -50.948083,12.467236 c -26.5165,52.149 -92.807797,114.905004 -91.923897,220.087004 0.8839,105.182 63.639597,105.182 123.743697,111.3695"/><path style="fill:none;stroke:#000;stroke-width:25;stroke-linecap:butt;stroke-linejoin:miter;stroke-miterlimit:4;stroke-opacity:1;stroke-dasharray:none;marker-start:none;marker-end:url(#Arrow1Send)" id="path2991-8-5" d="m 1590.4286,875.50474 c 300,0 300,0 300,0"/><rect style="opacity:.6;fill:#a8ff00;fill-opacity:.50196078;stroke:#000;stroke-width:10;stroke-linecap:round;stroke-linejoin:round;stroke-miterlimit:4;stroke-opacity:.70776253;stroke-dasharray:none;stroke-dashoffset:0" id="rect6258" width="700" height="100" x="2015.429" y="825.505"/><text xml:space="preserve" style="font-size:75px;font-style:normal;font-variant:normal;font-weight:400;font-stretch:normal;text-align:center;line-height:125%;letter-spacing:0;word-spacing:0;text-anchor:middle;fill:#000;fill-opacity:1;stroke:none;font-family:ubuntu;-inkscape-font-specification:ubuntu" id="text6260" x="2372.929" y="888.005"><tspan id="tspan6262" x="2372.929" y="888.005" style="font-size:60px">center/deletion</tspan></text><rect style="opacity:.6;fill:#00f;fill-opacity:.24657533;stroke:#000;stroke-width:5;stroke-linecap:round;stroke-linejoin:round;stroke-miterlimit:4;stroke-opacity:1;stroke-dasharray:none;stroke-dashoffset:0" id="rect4996-67-5" width="60" height="40" x="1514" y="851.934"/><rect style="opacity:.6;fill:#00f;fill-opacity:.24657533;stroke:#000;stroke-width:5;stroke-linecap:round;stroke-linejoin:round;stroke-miterlimit:4;stroke-opacity:1;stroke-dasharray:none;stroke-dashoffset:0" id="rect4996-67-6" width="60" height="40" x="1434" y="851.934"/><rect style="opacity:.6;fill:#00f;fill-opacity:.24657533;stroke:#000;stroke-width:5;stroke-linecap:round;stroke-linejoin:round;stroke-miterlimit:4;stroke-opacity:1;stroke-dasharray:none;stroke-dashoffset:0" id="rect4996-67-1" width="60" height="40" x="1354" y="851.934"/><path style="fill:none;stroke:#000;stroke-width:12.5;stroke-linecap:butt;stroke-linejoin:miter;stroke-miterlimit:4;stroke-opacity:1;stroke-dasharray:none;marker-start:url(#Arrow1Sstart);marker-mid:none;marker-end:url(#Arrow1Send-3)" id="path6317-6" d="m 2657.3873,-21.704264 c 142.9813,0 142.9813,0 142.9813,0"/><path style="fill:none;stroke:#000;stroke-width:12.5;stroke-linecap:butt;stroke-linejoin:miter;stroke-miterlimit:4;stroke-opacity:1;stroke-dasharray:none;marker-start:url(#Arrow1Sstart);marker-mid:none;marker-end:url(#Arrow1Send-3)" id="path6317-1" d="m 2657.3873,78.295736 c 142.9813,0 142.9813,0 142.9813,0"/><path style="fill:none;stroke:#000;stroke-width:12.5;stroke-linecap:butt;stroke-linejoin:miter;stroke-miterlimit:4;stroke-opacity:1;stroke-dasharray:none;marker-start:url(#Arrow1Sstart);marker-mid:none;marker-end:url(#Arrow1Send-3)" id="path6317-4" d="m 2657.3873,278.29574 c 142.9813,0 142.9813,0 142.9813,0"/><path style="fill:none;stroke:#000;stroke-width:12.5;stroke-linecap:butt;stroke-linejoin:miter;stroke-miterlimit:4;stroke-opacity:1;stroke-dasharray:none;marker-start:url(#Arrow1Sstart);marker-mid:none;marker-end:url(#Arrow1Send-3)" id="path6317-8" d="m 2657.3873,378.29574 c 142.9813,0 142.9813,0 142.9813,0"/><path style="fill:none;stroke:#000;stroke-width:12.5;stroke-linecap:butt;stroke-linejoin:miter;stroke-miterlimit:4;stroke-opacity:1;stroke-dasharray:none;marker-start:url(#Arrow1Sstart);marker-mid:none;marker-end:url(#Arrow1Send-3)" id="path6317-7" d="m 2657.3873,478.29574 c 142.9813,0 142.9813,0 142.9813,0"/><path style="fill:none;stroke:#000;stroke-width:12.5;stroke-linecap:butt;stroke-linejoin:miter;stroke-miterlimit:4;stroke-opacity:1;stroke-dasharray:none;marker-start:url(#Arrow1Sstart);marker-mid:none;marker-end:url(#Arrow1Send-3)" id="path6317" d="m 2657.3873,-121.70426 c 142.9813,0 142.9813,0 142.9813,0"/><text xml:space="preserve" style="font-size:75px;font-style:normal;font-variant:normal;font-weight:400;font-stretch:normal;text-align:center;line-height:125%;letter-spacing:0;word-spacing:0;text-anchor:middle;fill:#000;fill-opacity:1;stroke:none;font-family:ubuntu;-inkscape-font-specification:ubuntu" id="text8150" x="2715.428" y="-194.495"><tspan id="tspan8152" x="2715.428" y="-194.495">sockets</tspan></text><path style="fill:none;stroke:#000;stroke-width:12.5;stroke-linecap:butt;stroke-linejoin:miter;stroke-miterlimit:4;stroke-opacity:1;stroke-dasharray:none;marker-start:url(#Arrow1Sstart);marker-mid:none;marker-end:url(#Arrow1Send-3)" id="path6317-7-0" d="m 2657.3873,878.29574 c 142.9813,0 142.9813,0 142.9813,0"/><rect style="opacity:.6;fill:#0040ff;fill-opacity:.03137255;stroke:#000;stroke-width:10;stroke-linecap:round;stroke-linejoin:round;stroke-miterlimit:4;stroke-opacity:.44292238;stroke-dasharray:none;stroke-dashoffset:0" id="rect12730" width="3200" height="1800" x="-284.571" y="-474.495"/><flowRoot id="flowRoot6226" transform="matrix(5,0,0,5,-1299.5714,-2253.806)" xml:space="preserve" style="font-size:15px;font-style:normal;font-variant:normal;font-weight:400;font-stretch:normal;text-align:center;line-height:125%;letter-spacing:0;word-spacing:0;text-anchor:middle;fill:#000;fill-opacity:1;stroke:none;font-family:ubuntu;-inkscape-font-specification:ubuntu"><flowRegion id="flowRegion6228"><rect id="rect6230" width="153" height="29.677" x="210" y="370.362"/></flowRegion><flowPara id="flowPara6232" style="font-size:24px">Scheduler</flowPara></flowRoot></g></svg>