<svg xmlns="http://www.w3.org/2000/svg" xmlns:xlink="http://www.w3.org/1999/xlink" width="815pt" height="125pt" viewBox="0 0 815.45 125"><g id="graph0" class="graph" transform="scale(1 1) rotate(0) translate(4 121)"><polygon fill="#fff" fill-opacity=".941" stroke="transparent" points="-4 4 -4 -121 811.45 -121 811.45 4 -4 4"/><g id="node1" class="node"><title>released1</title><ellipse cx="39.65" cy="-72" fill="none" stroke="#000" rx="39.79" ry="18"/><text x="39.65" y="-68.3" font-family="Times,serif" font-size="14" text-anchor="middle">released</text></g><g id="node3" class="node"><title>waiting</title><ellipse cx="152.34" cy="-72" fill="none" stroke="#000" rx="37.09" ry="18"/><text x="152.34" y="-68.3" font-family="Times,serif" font-size="14" text-anchor="middle">waiting</text></g><g id="edge1" class="edge"><title>released1-&gt;waiting</title><path fill="none" stroke="#000" d="M79.36,-72C87.61,-72 96.39,-72 104.89,-72"/><polygon fill="#000" stroke="#000" points="105.06 -75.5 115.06 -72 105.06 -68.5 105.06 -75.5"/></g><g id="node2" class="node"><title>released2</title><ellipse cx="646.01" cy="-72" fill="none" stroke="#000" rx="39.79" ry="18"/><text x="646.01" y="-68.3" font-family="Times,serif" font-size="14" text-anchor="middle">released</text></g><g id="node9" class="node"><title>forgotten</title><ellipse cx="764.55" cy="-72" fill="none" stroke="#000" rx="42.79" ry="18"/><text x="764.55" y="-68.3" font-family="Times,serif" font-size="14" text-anchor="middle">forgotten</text></g><g id="edge11" class="edge"><title>released2-&gt;forgotten</title><path fill="none" stroke="#000" d="M685.82,-72C693.91,-72 702.58,-72 711.07,-72"/><polygon fill="#000" stroke="#000" points="711.31 -75.5 721.31 -72 711.31 -68.5 711.31 -75.5"/></g><g id="node4" class="node"><title>processing</title><ellipse cx="404.37" cy="-72" fill="none" stroke="#000" rx="48.19" ry="18"/><text x="404.37" y="-68.3" font-family="Times,serif" font-size="14" text-anchor="middle">processing</text></g><g id="edge2" class="edge"><title>waiting-&gt;processing</title><path fill="none" stroke="#000" d="M179.38,-84.34C192.8,-90.03 209.61,-96.14 225.39,-99 266.88,-106.52 278.62,-105.6 320.28,-99 334.01,-96.83 348.56,-92.75 361.58,-88.41"/><polygon fill="#000" stroke="#000" points="362.9 -91.65 371.2 -85.07 360.6 -85.04 362.9 -91.65"/></g><g id="node5" class="node"><title>no-worker</title><ellipse cx="272.83" cy="-72" fill="none" stroke="#000" rx="47.39" ry="18"/><text x="272.83" y="-68.3" font-family="Times,serif" font-size="14" text-anchor="middle">no-worker</text></g><g id="edge3" class="edge"><title>waiting-&gt;no-worker</title><path fill="none" stroke="#000" d="M189.54,-72C197.66,-72 206.46,-72 215.19,-72"/><polygon fill="#000" stroke="#000" points="215.36 -75.5 225.36 -72 215.36 -68.5 215.36 -75.5"/></g><g id="node6" class="node"><title>queued</title><ellipse cx="272.83" cy="-18" fill="none" stroke="#000" rx="36.29" ry="18"/><text x="272.83" y="-14.3" font-family="Times,serif" font-size="14" text-anchor="middle">queued</text></g><g id="edge4" class="edge"><title>waiting-&gt;queued</title><path fill="none" stroke="#000" d="M179.93,-59.88C196.4,-52.38 217.76,-42.64 235.74,-34.45"/><polygon fill="#000" stroke="#000" points="237.68 -37.41 245.33 -30.08 234.78 -31.04 237.68 -37.41"/></g><g id="node7" class="node"><title>memory</title><ellipse cx="529.42" cy="-99" fill="none" stroke="#000" rx="40.89" ry="18"/><text x="529.42" y="-95.3" font-family="Times,serif" font-size="14" text-anchor="middle">memory</text></g><g id="edge7" class="edge"><title>processing-&gt;memory</title><path fill="none" stroke="#000" d="M446.34,-80.99C458.03,-83.56 470.84,-86.37 482.79,-88.99"/><polygon fill="#000" stroke="#000" points="482.06 -92.41 492.58 -91.14 483.56 -85.57 482.06 -92.41"/></g><g id="node8" class="node"><title>error</title><ellipse cx="529.42" cy="-45" fill="none" stroke="#000" rx="27.9" ry="18"/><text x="529.42" y="-41.3" font-family="Times,serif" font-size="14" text-anchor="middle">error</text></g><g id="edge8" class="edge"><title>processing-&gt;error</title><path fill="none" stroke="#000" d="M446.34,-63.01C461.31,-59.73 478.1,-56.04 492.59,-52.86"/><polygon fill="#000" stroke="#000" points="493.64 -56.21 502.66 -50.65 492.14 -49.38 493.64 -56.21"/></g><g id="edge5" class="edge"><title>no-worker-&gt;processing</title><path fill="none" stroke="#000" d="M320.6,-72C328.84,-72 337.51,-72 346,-72"/><polygon fill="#000" stroke="#000" points="346.24 -75.5 356.24 -72 346.24 -68.5 346.24 -75.5"/></g><g id="edge6" class="edge"><title>queued-&gt;processing</title><path fill="none" stroke="#000" d="M301.3,-29.45C318.92,-36.8 342.12,-46.47 361.95,-54.73"/><polygon fill="#000" stroke="#000" points="360.8 -58.04 371.37 -58.66 363.49 -51.58 360.8 -58.04"/></g><g id="edge10" class="edge"><title>memory-&gt;released2</title><path fill="none" stroke="#000" d="M565.73,-90.68C576.72,-88.09 588.98,-85.2 600.5,-82.49"/><polygon fill="#000" stroke="#000" points="601.47 -85.85 610.4 -80.15 599.86 -79.04 601.47 -85.85"/></g><g id="edge9" class="edge"><title>error-&gt;released2</title><path fill="none" stroke="#000" d="M555.85,-50.99C569.05,-54.1 585.55,-57.99 600.76,-61.57"/><polygon fill="#000" stroke="#000" points="599.98 -64.99 610.52 -63.87 601.59 -58.17 599.98 -64.99"/></g></g></svg>