<svg xmlns="http://www.w3.org/2000/svg" xmlns:xlink="http://www.w3.org/1999/xlink" width="650pt" height="206pt" viewBox="0 0 650.25 206"><g id="graph0" class="graph" transform="scale(1 1) rotate(0) translate(4 202)"><polygon fill="#fff" fill-opacity=".941" stroke="transparent" points="-4 4 -4 -202 646.25 -202 646.25 4 -4 4"/><g id="node1" class="node"><title>flight1</title><ellipse cx="35.1" cy="-126" fill="none" stroke="#000" rx="35.19" ry="18"/><text x="35.1" y="-122.3" font-family="Times,serif" font-size="14" text-anchor="middle">flight</text></g><g id="node3" class="node"><title>cancelled</title><ellipse cx="191.34" cy="-126" fill="none" stroke="#000" rx="85.29" ry="18"/><text x="191.34" y="-122.3" font-family="Times,serif" font-size="14" text-anchor="middle">cancelled(flight)</text></g><g id="edge1" class="edge"><title>flight1-&gt;cancelled</title><path fill="none" stroke="#000" d="M70.33,-126C78.13,-126 86.79,-126 95.79,-126"/><polygon fill="#000" stroke="#000" points="96.06 -129.5 106.06 -126 96.06 -122.5 96.06 -129.5"/></g><g id="node2" class="node"><title>flight2</title><ellipse cx="588.31" cy="-180" fill="none" stroke="#000" rx="35.19" ry="18"/><text x="588.31" y="-176.3" font-family="Times,serif" font-size="14" text-anchor="middle">flight</text></g><g id="edge2" class="edge"><title>cancelled-&gt;flight2</title><path fill="none" stroke="#000" d="M246.79,-139.73C267.27,-144.5 290.84,-149.52 312.48,-153 393.41,-166.02 488.83,-173.69 543.28,-177.35"/><polygon fill="#000" stroke="#000" points="543.08 -180.85 553.29 -178.01 543.54 -173.86 543.08 -180.85"/></g><g id="node4" class="node"><title>resumed</title><ellipse cx="405.42" cy="-126" fill="none" stroke="#000" rx="92.88" ry="18"/><text x="405.42" y="-122.3" font-family="Times,serif" font-size="14" text-anchor="middle">resumed(waiting)</text></g><g id="edge5" class="edge"><title>cancelled-&gt;resumed</title><path fill="none" stroke="#000" d="M286.96,-126C291.95,-126 296.98,-126 302,-126"/><polygon fill="#000" stroke="#000" points="286.77 -122.5 276.77 -126 286.77 -129.5 286.77 -122.5"/><polygon fill="#000" stroke="#000" points="302.26 -129.5 312.26 -126 302.26 -122.5 302.26 -129.5"/></g><g id="node5" class="node"><title>released</title><ellipse cx="405.42" cy="-45" fill="none" stroke="#000" rx="50.09" ry="18"/><text x="405.42" y="-41.3" font-family="Times,serif" font-size="14" text-anchor="middle">released</text></g><g id="edge3" class="edge"><title>cancelled-&gt;released</title><path fill="none" stroke="#000" d="M233.48,-110.29C270.08,-96.31 323.44,-75.93 360.78,-61.67"/><polygon fill="#000" stroke="#000" points="362.29 -64.84 370.38 -58 359.79 -58.3 362.29 -64.84"/></g><g id="edge6" class="edge"><title>resumed-&gt;flight2</title><path fill="none" stroke="#000" d="M456.81,-141.04C485.54,-149.62 521.04,-160.22 547.75,-168.19"/><polygon fill="#000" stroke="#000" points="546.95 -171.6 557.53 -171.11 548.95 -164.9 546.95 -171.6"/></g><g id="node7" class="node"><title>memory</title><ellipse cx="588.31" cy="-126" fill="none" stroke="#000" rx="48.99" ry="18"/><text x="588.31" y="-122.3" font-family="Times,serif" font-size="14" text-anchor="middle">memory</text></g><g id="edge7" class="edge"><title>resumed-&gt;memory</title><path fill="none" stroke="#000" d="M498.45,-126C508.95,-126 519.41,-126 529.28,-126"/><polygon fill="#000" stroke="#000" points="529.33 -129.5 539.33 -126 529.33 -122.5 529.33 -129.5"/></g><g id="node8" class="node"><title>waiting</title><ellipse cx="588.31" cy="-72" fill="none" stroke="#000" rx="45.49" ry="18"/><text x="588.31" y="-68.3" font-family="Times,serif" font-size="14" text-anchor="middle">waiting</text></g><g id="edge8" class="edge"><title>resumed-&gt;waiting</title><path fill="none" stroke="#000" d="M456.81,-110.96C483.39,-103.02 515.75,-93.36 541.6,-85.65"/><polygon fill="#000" stroke="#000" points="542.93 -88.9 551.52 -82.68 540.93 -82.19 542.93 -88.9"/></g><g id="node6" class="node"><title>forgotten</title><ellipse cx="588.31" cy="-18" fill="none" stroke="#000" rx="53.89" ry="18"/><text x="588.31" y="-14.3" font-family="Times,serif" font-size="14" text-anchor="middle">forgotten</text></g><g id="edge4" class="edge"><title>released-&gt;forgotten</title><path fill="none" stroke="#000" d="M452.07,-38.19C475.34,-34.71 503.91,-30.45 528.78,-26.74"/><polygon fill="#000" stroke="#000" points="529.45 -30.17 538.83 -25.24 528.42 -23.25 529.45 -30.17"/></g></g></svg>