<svg xmlns="http://www.w3.org/2000/svg" xmlns:xlink="http://www.w3.org/1999/xlink" width="898pt" height="160pt" viewBox="0 0 897.74 160"><g id="graph0" class="graph" transform="scale(1 1) rotate(0) translate(4 156)"><polygon fill="#fff" fill-opacity=".941" stroke="transparent" points="-4 4 -4 -156 893.74 -156 893.74 4 -4 4"/><g id="node1" class="node"><title>released</title><ellipse cx="50.05" cy="-68" fill="none" stroke="#000" rx="50.09" ry="18"/><text x="50.05" y="-64.3" font-family="Times,serif" font-size="14" text-anchor="middle">released</text></g><g id="node2" class="node"><title>waiting</title><ellipse cx="181.59" cy="-68" fill="none" stroke="#000" rx="45.49" ry="18"/><text x="181.59" y="-64.3" font-family="Times,serif" font-size="14" text-anchor="middle">waiting</text></g><g id="edge1" class="edge"><title>released-&gt;waiting</title><path fill="none" stroke="#000" d="M100.39,-68C108.73,-68 117.42,-68 125.89,-68"/><polygon fill="#000" stroke="#000" points="126.05 -71.5 136.05 -68 126.05 -64.5 126.05 -71.5"/></g><g id="node3" class="node"><title>ready</title><ellipse cx="328.73" cy="-95" fill="none" stroke="#000" rx="37.09" ry="18"/><text x="328.73" y="-91.3" font-family="Times,serif" font-size="14" text-anchor="middle">ready</text></g><g id="edge2" class="edge"><title>waiting-&gt;ready</title><path fill="none" stroke="#000" d="M223.02,-75.52C241.93,-79.04 264.49,-83.24 283.82,-86.83"/><polygon fill="#000" stroke="#000" points="283.42 -90.32 293.89 -88.71 284.7 -83.44 283.42 -90.32"/></g><g id="node4" class="node"><title>constrained</title><ellipse cx="328.73" cy="-41" fill="none" stroke="#000" rx="65.79" ry="18"/><text x="328.73" y="-37.3" font-family="Times,serif" font-size="14" text-anchor="middle">constrained</text></g><g id="edge3" class="edge"><title>waiting-&gt;constrained</title><path fill="none" stroke="#000" d="M223.02,-60.48C235.71,-58.12 250.04,-55.45 263.93,-52.87"/><polygon fill="#000" stroke="#000" points="264.76 -56.27 273.95 -51 263.48 -49.39 264.76 -56.27"/></g><g id="node5" class="node"><title>executing</title><ellipse cx="486.27" cy="-68" fill="none" stroke="#000" rx="55.79" ry="18"/><text x="486.27" y="-64.3" font-family="Times,serif" font-size="14" text-anchor="middle">executing</text></g><g id="edge4" class="edge"><title>ready-&gt;executing</title><path fill="none" stroke="#000" d="M363.86,-89.07C382.31,-85.87 405.61,-81.83 426.85,-78.14"/><polygon fill="#000" stroke="#000" points="427.5 -81.58 436.76 -76.42 426.3 -74.68 427.5 -81.58"/></g><g id="edge5" class="edge"><title>constrained-&gt;executing</title><path fill="none" stroke="#000" d="M384.56,-50.52C398.22,-52.89 412.91,-55.44 426.73,-57.84"/><polygon fill="#000" stroke="#000" points="426.17 -61.29 436.62 -59.56 427.36 -54.4 426.17 -61.29"/></g><g id="node6" class="node"><title>long-running</title><ellipse cx="648.36" cy="-91" fill="none" stroke="#000" rx="70.39" ry="18"/><text x="648.36" y="-87.3" font-family="Times,serif" font-size="14" text-anchor="middle">long-running</text></g><g id="edge6" class="edge"><title>executing-&gt;long-running</title><path fill="none" stroke="#000" d="M537.48,-75.21C549.9,-77 563.44,-78.94 576.64,-80.84"/><polygon fill="#000" stroke="#000" points="576.25 -84.32 586.64 -82.28 577.24 -77.39 576.25 -84.32"/></g><g id="node7" class="node"><title>memory</title><ellipse cx="822.14" cy="-134" fill="none" stroke="#000" rx="48.99" ry="18"/><text x="822.14" y="-130.3" font-family="Times,serif" font-size="14" text-anchor="middle">memory</text></g><g id="edge7" class="edge"><title>executing-&gt;memory</title><path fill="none" stroke="#000" d="M510.31,-84.4C527.98,-96.02 553.44,-110.78 578.16,-118 639.72,-135.99 713.65,-138.28 763.67,-137.15"/><polygon fill="#000" stroke="#000" points="764.07 -140.65 773.97 -136.87 763.88 -133.65 764.07 -140.65"/></g><g id="node8" class="node"><title>error</title><ellipse cx="822.14" cy="-77" fill="none" stroke="#000" rx="34.39" ry="18"/><text x="822.14" y="-73.3" font-family="Times,serif" font-size="14" text-anchor="middle">error</text></g><g id="edge8" class="edge"><title>executing-&gt;error</title><path fill="none" stroke="#000" d="M541.57,-65.22C553.61,-64.71 566.32,-64.26 578.16,-64 640.54,-62.63 656.28,-60.07 718.55,-64 738.41,-65.25 760.31,-67.86 778.76,-70.41"/><polygon fill="#000" stroke="#000" points="778.5 -73.91 788.9 -71.86 779.49 -66.98 778.5 -73.91"/></g><g id="node9" class="node"><title>rescheduled</title><ellipse cx="822.14" cy="-18" fill="none" stroke="#000" rx="67.69" ry="18"/><text x="822.14" y="-14.3" font-family="Times,serif" font-size="14" text-anchor="middle">rescheduled</text></g><g id="edge9" class="edge"><title>executing-&gt;rescheduled</title><path fill="none" stroke="#000" d="M537.25,-60.51C594.58,-51.93 688.89,-37.81 752.94,-28.21"/><polygon fill="#000" stroke="#000" points="753.57 -31.66 762.94 -26.72 752.54 -24.74 753.57 -31.66"/></g><g id="edge10" class="edge"><title>long-running-&gt;memory</title><path fill="none" stroke="#000" d="M699.51,-103.55C722.19,-109.23 748.93,-115.92 771.55,-121.59"/><polygon fill="#000" stroke="#000" points="770.75 -124.99 781.3 -124.03 772.45 -118.2 770.75 -124.99"/></g><g id="edge11" class="edge"><title>long-running-&gt;error</title><path fill="none" stroke="#000" d="M715.77,-85.59C736.64,-83.89 759.14,-82.05 777.96,-80.52"/><polygon fill="#000" stroke="#000" points="778.32 -84 788 -79.7 777.75 -77.02 778.32 -84"/></g><g id="edge12" class="edge"><title>long-running-&gt;rescheduled</title><path fill="none" stroke="#000" d="M685.37,-75.7C711.8,-64.47 747.87,-49.14 776.19,-37.1"/><polygon fill="#000" stroke="#000" points="777.64 -40.29 785.47 -33.16 774.9 -33.85 777.64 -40.29"/></g></g></svg>