<svg xmlns="http://www.w3.org/2000/svg" xmlns:xlink="http://www.w3.org/1999/xlink" width="715pt" height="206pt" viewBox="0 0 715.25 206"><g id="graph0" class="graph" transform="scale(1 1) rotate(0) translate(4 202)"><polygon fill="#fff" fill-opacity=".941" stroke="transparent" points="-4 4 -4 -202 711.25 -202 711.25 4 -4 4"/><g id="node1" class="node"><title>executing1</title><ellipse cx="55.9" cy="-126" fill="none" stroke="#000" rx="55.79" ry="18"/><text x="55.9" y="-122.3" font-family="Times,serif" font-size="14" text-anchor="middle">executing</text></g><g id="node3" class="node"><title>cancelled</title><ellipse cx="254.38" cy="-126" fill="none" stroke="#000" rx="106.68" ry="18"/><text x="254.38" y="-122.3" font-family="Times,serif" font-size="14" text-anchor="middle">cancelled(executing)</text></g><g id="edge1" class="edge"><title>executing1-&gt;cancelled</title><path fill="none" stroke="#000" d="M111.89,-126C120.05,-126 128.72,-126 137.58,-126"/><polygon fill="#000" stroke="#000" points="137.65 -129.5 147.65 -126 137.65 -122.5 137.65 -129.5"/></g><g id="node2" class="node"><title>executing2</title><ellipse cx="651.35" cy="-180" fill="none" stroke="#000" rx="55.79" ry="18"/><text x="651.35" y="-176.3" font-family="Times,serif" font-size="14" text-anchor="middle">executing</text></g><g id="edge3" class="edge"><title>cancelled-&gt;executing2</title><path fill="none" stroke="#000" d="M322.17,-139.91C345.74,-144.5 372.47,-149.36 396.97,-153 461.25,-162.54 535.18,-170.02 586.52,-174.66"/><polygon fill="#000" stroke="#000" points="586.53 -178.18 596.8 -175.58 587.16 -171.21 586.53 -178.18"/></g><g id="node4" class="node"><title>resumed</title><ellipse cx="478.21" cy="-126" fill="none" stroke="#000" rx="81.49" ry="18"/><text x="478.21" y="-122.3" font-family="Times,serif" font-size="14" text-anchor="middle">resumed(fetch)</text></g><g id="edge5" class="edge"><title>cancelled-&gt;resumed</title><path fill="none" stroke="#000" d="M371.28,-126C376.42,-126 381.55,-126 386.62,-126"/><polygon fill="#000" stroke="#000" points="371.1 -122.5 361.1 -126 371.1 -129.5 371.1 -122.5"/><polygon fill="#000" stroke="#000" points="386.93 -129.5 396.93 -126 386.93 -122.5 386.93 -129.5"/></g><g id="node5" class="node"><title>released</title><ellipse cx="478.21" cy="-45" fill="none" stroke="#000" rx="50.09" ry="18"/><text x="478.21" y="-41.3" font-family="Times,serif" font-size="14" text-anchor="middle">released</text></g><g id="edge2" class="edge"><title>cancelled-&gt;released</title><path fill="none" stroke="#000" d="M300.01,-109.71C338.73,-95.57 394.48,-75.21 433.06,-61.12"/><polygon fill="#000" stroke="#000" points="434.29 -64.4 442.48 -57.68 431.89 -57.82 434.29 -64.4"/></g><g id="edge6" class="edge"><title>resumed-&gt;executing2</title><path fill="none" stroke="#000" d="M525.98,-140.76C549.27,-148.11 577.43,-156.99 601.07,-164.45"/><polygon fill="#000" stroke="#000" points="600.3 -167.88 610.89 -167.55 602.4 -161.2 600.3 -167.88"/></g><g id="node7" class="node"><title>memory</title><ellipse cx="651.35" cy="-126" fill="none" stroke="#000" rx="48.99" ry="18"/><text x="651.35" y="-122.3" font-family="Times,serif" font-size="14" text-anchor="middle">memory</text></g><g id="edge7" class="edge"><title>resumed-&gt;memory</title><path fill="none" stroke="#000" d="M559.52,-126C570.46,-126 581.52,-126 591.97,-126"/><polygon fill="#000" stroke="#000" points="592.2 -129.5 602.2 -126 592.2 -122.5 592.2 -129.5"/></g><g id="node8" class="node"><title>fetch</title><ellipse cx="651.35" cy="-72" fill="none" stroke="#000" rx="34.39" ry="18"/><text x="651.35" y="-68.3" font-family="Times,serif" font-size="14" text-anchor="middle">fetch</text></g><g id="edge8" class="edge"><title>resumed-&gt;fetch</title><path fill="none" stroke="#000" d="M525.98,-111.24C552.89,-102.75 586.29,-92.21 611.71,-84.19"/><polygon fill="#000" stroke="#000" points="612.89 -87.49 621.37 -81.15 610.78 -80.82 612.89 -87.49"/></g><g id="node6" class="node"><title>forgotten</title><ellipse cx="651.35" cy="-18" fill="none" stroke="#000" rx="53.89" ry="18"/><text x="651.35" y="-14.3" font-family="Times,serif" font-size="14" text-anchor="middle">forgotten</text></g><g id="edge4" class="edge"><title>released-&gt;forgotten</title><path fill="none" stroke="#000" d="M524.63,-37.84C545.41,-34.56 570.28,-30.63 592.39,-27.14"/><polygon fill="#000" stroke="#000" points="593 -30.59 602.33 -25.58 591.91 -23.68 593 -30.59"/></g></g></svg>