<svg xmlns="http://www.w3.org/2000/svg" xmlns:xlink="http://www.w3.org/1999/xlink" width="560" height="536pt" viewBox="0 0 420 535.91"><g id="graph0" class="graph" transform="scale(1 1) rotate(0) translate(4 531.91)"><polygon fill="#fff" fill-opacity=".941" stroke="transparent" points="-4 4 -4 -531.91 416 -531.91 416 4 -4 4"/><g id="clust1" class="cluster"><title>cluster_0</title><polygon fill="#fff" fill-opacity=".941" stroke="#000" points="8 -290.95 8 -411.91 404 -411.91 404 -290.95 8 -290.95"/><text x="206" y="-391.91" font-family="Times,serif" font-size="20" text-anchor="middle">Worker</text></g><g id="clust2" class="cluster"><title>cluster_1</title><polygon fill="#fff" fill-opacity=".941" stroke="#000" points="8 -162 8 -282.95 404 -282.95 404 -162 8 -162"/><text x="206" y="-262.95" font-family="Times,serif" font-size="20" text-anchor="middle">BaseWorker</text></g><g id="clust3" class="cluster"><title>cluster_2</title><polygon fill="#fff" fill-opacity=".941" stroke="#000" points="50 -8 50 -90 252 -90 252 -8 50 -8"/><text x="151" y="-70" font-family="Times,serif" font-size="20" text-anchor="middle">WorkerState</text></g><g id="node1" class="node"><title>Scheduler</title><polygon fill="none" stroke="#000" points="263 -527.91 143 -527.91 143 -491.91 263 -491.91 263 -527.91"/><text x="203" y="-504.91" font-family="Times,serif" font-size="20" text-anchor="middle">Scheduler</text></g><g id="node2" class="node"><title>stimuli</title><polygon fill="gray" stroke="gray" points="282 -455.91 124 -455.91 124 -419.91 282 -419.91 282 -455.91"/><text x="203" y="-434.21" font-family="Times,serif" font-size="14" text-anchor="middle">StateMachineEvent</text></g><g id="edge1" class="edge"><title>Scheduler-&gt;stimuli</title><path fill="none" stroke="#000" d="M203,-491.6C203,-483.89 203,-474.62 203,-466.02"/><polygon fill="#000" stroke="#000" points="206.5 -466.01 203 -456.01 199.5 -466.01 206.5 -466.01"/></g><g id="node4" class="node"><title>Worker_handle_stimulus</title><ellipse cx="303" cy="-336.43" fill="none" stroke="#000" rx="92.88" ry="18"/><text x="303" y="-332.73" font-family="Times,serif" font-size="14" text-anchor="middle">handle_stimulus()</text></g><g id="edge2" class="edge"><title>stimuli-&gt;Worker_handle_stimulus</title><path fill="none" stroke="#000" d="M220.42,-419.58C236.58,-403.51 260.78,-379.43 278.81,-361.5"/><polygon fill="#000" stroke="#000" points="281.49 -363.76 286.11 -354.23 276.56 -358.8 281.49 -363.76"/></g><g id="node5" class="node"><title>Worker_execute</title><ellipse cx="104" cy="-336.43" fill="none" stroke="#000" rx="88.28" ry="37.45"/><text x="104" y="-347.73" font-family="Times,serif" font-size="14" text-anchor="middle">execute()</text><text x="104" y="-332.73" font-family="Times,serif" font-size="14" text-anchor="middle">gather_dep()</text><text x="104" y="-317.73" font-family="Times,serif" font-size="14" text-anchor="middle">batched_send()</text></g><g id="edge5" class="edge"><title>stimuli-&gt;Worker_execute</title><path fill="none" stroke="#000" d="M178.52,-412.31C166.25,-399.98 151.21,-384.86 137.85,-371.45"/><polygon fill="#000" stroke="#000" points="176.22 -414.96 185.76 -419.58 181.18 -410.02 176.22 -414.96"/></g><g id="node3" class="node"><title>instructions</title><polygon fill="gray" stroke="gray" points="191 -134 63 -134 63 -98 191 -98 191 -134"/><text x="127" y="-112.3" font-family="Times,serif" font-size="14" text-anchor="middle">list[Instruction]</text></g><g id="node8" class="node"><title>WorkerState_handle_stimulus</title><ellipse cx="151" cy="-34" fill="none" stroke="#000" rx="92.88" ry="18"/><text x="151" y="-30.3" font-family="Times,serif" font-size="14" text-anchor="middle">handle_stimulus()</text></g><g id="edge8" class="edge"><title>instructions-&gt;WorkerState_handle_stimulus</title><path fill="none" stroke="#000" d="M135.16,-87.79C138.72,-75.95 142.77,-62.44 145.88,-52.05"/><polygon fill="#000" stroke="#000" points="131.73 -87.06 132.21 -97.64 138.43 -89.07 131.73 -87.06"/></g><g id="node6" class="node"><title>BaseWorker_handle_stimulus</title><ellipse cx="303" cy="-207.48" fill="none" stroke="#000" rx="92.88" ry="18"/><text x="303" y="-203.78" font-family="Times,serif" font-size="14" text-anchor="middle">handle_stimulus()</text></g><g id="edge3" class="edge"><title>Worker_handle_stimulus-&gt;BaseWorker_handle_stimulus</title><path fill="none" stroke="#000" d="M303,-318.31C303,-297.2 303,-261.06 303,-236.03"/><polygon fill="#000" stroke="#000" points="306.5 -235.73 303 -225.73 299.5 -235.73 306.5 -235.73"/></g><g id="node7" class="node"><title>BaseWorker_execute</title><ellipse cx="104" cy="-207.48" fill="none" stroke="#000" rx="88.28" ry="37.45"/><text x="104" y="-218.78" font-family="Times,serif" font-size="14" text-anchor="middle">execute()</text><text x="104" y="-203.78" font-family="Times,serif" font-size="14" text-anchor="middle">gather_dep()</text><text x="104" y="-188.78" font-family="Times,serif" font-size="14" text-anchor="middle">batched_send()</text></g><g id="edge6" class="edge"><title>Worker_execute-&gt;BaseWorker_execute</title><path fill="none" stroke="#000" d="M104,-288.53C104,-274.2 104,-258.66 104,-245.11"/><polygon fill="#000" stroke="#000" points="100.5 -288.71 104 -298.71 107.5 -288.71 100.5 -288.71"/></g><g id="edge4" class="edge"><title>BaseWorker_handle_stimulus-&gt;WorkerState_handle_stimulus</title><path fill="none" stroke="#000" d="M287.87,-189.41C260.9,-158.98 204.4,-95.25 173.09,-59.92"/><polygon fill="#000" stroke="#000" points="175.32 -57.16 166.07 -52 170.08 -61.8 175.32 -57.16"/></g><g id="edge7" class="edge"><title>BaseWorker_execute-&gt;instructions</title><path fill="none" stroke="#000" d="M115.85,-160.4C118.24,-151.06 120.62,-141.8 122.57,-134.25"/><polygon fill="#000" stroke="#000" points="112.45 -159.53 113.35 -170.08 119.23 -161.27 112.45 -159.53"/></g></g></svg>