<svg xmlns="http://www.w3.org/2000/svg" xmlns:xlink="http://www.w3.org/1999/xlink" width="476pt" height="98pt" viewBox="0 0 476.07 98"><g id="graph0" class="graph" transform="scale(1 1) rotate(0) translate(4 94)"><polygon fill="#fff" fill-opacity=".941" stroke="transparent" points="-4 4 -4 -94 472.07 -94 472.07 4 -4 4"/><g id="node1" class="node"><title>released</title><ellipse cx="50.05" cy="-45" fill="none" stroke="#000" rx="50.09" ry="18"/><text x="50.05" y="-41.3" font-family="Times,serif" font-size="14" text-anchor="middle">released</text></g><g id="node2" class="node"><title>fetch</title><ellipse cx="170.54" cy="-45" fill="none" stroke="#000" rx="34.39" ry="18"/><text x="170.54" y="-41.3" font-family="Times,serif" font-size="14" text-anchor="middle">fetch</text></g><g id="edge1" class="edge"><title>released-&gt;fetch</title><path fill="none" stroke="#000" d="M100.27,-45C108.67,-45 117.36,-45 125.61,-45"/><polygon fill="#000" stroke="#000" points="125.79 -48.5 135.79 -45 125.79 -41.5 125.79 -48.5"/></g><g id="node3" class="node"><title>flight</title><ellipse cx="287.78" cy="-72" fill="none" stroke="#000" rx="35.19" ry="18"/><text x="287.78" y="-68.3" font-family="Times,serif" font-size="14" text-anchor="middle">flight</text></g><g id="edge2" class="edge"><title>fetch-&gt;flight</title><path fill="none" stroke="#000" d="M204.87,-46.62C219.35,-49.3 236.32,-53.24 251.06,-57.33"/><polygon fill="#000" stroke="#000" points="250.26 -60.75 260.84 -60.18 252.22 -54.03 250.26 -60.75"/></g><g id="node4" class="node"><title>missing</title><ellipse cx="287.78" cy="-18" fill="none" stroke="#000" rx="46.59" ry="18"/><text x="287.78" y="-14.3" font-family="Times,serif" font-size="14" text-anchor="middle">missing</text></g><g id="edge4" class="edge"><title>fetch-&gt;missing</title><path fill="none" stroke="#000" d="M197.11,-33.29C207.37,-30.15 219.62,-26.94 231.71,-24.16"/><polygon fill="#000" stroke="#000" points="232.77 -27.51 241.79 -21.94 231.27 -20.67 232.77 -27.51"/></g><g id="edge3" class="edge"><title>flight-&gt;fetch</title><path fill="none" stroke="#000" d="M252.53,-70.21C238.09,-67.5 221.3,-63.58 206.76,-59.53"/><polygon fill="#000" stroke="#000" points="207.69 -56.15 197.11 -56.71 205.73 -62.87 207.69 -56.15"/></g><g id="node5" class="node"><title>memory</title><ellipse cx="419.32" cy="-72" fill="none" stroke="#000" rx="48.99" ry="18"/><text x="419.32" y="-68.3" font-family="Times,serif" font-size="14" text-anchor="middle">memory</text></g><g id="edge6" class="edge"><title>flight-&gt;memory</title><path fill="none" stroke="#000" d="M323.16,-72C334.51,-72 347.48,-72 360.11,-72"/><polygon fill="#000" stroke="#000" points="360.13 -75.5 370.13 -72 360.13 -68.5 360.13 -75.5"/></g><g id="edge5" class="edge"><title>missing-&gt;fetch</title><path fill="none" stroke="#000" d="M255.89,-31.3C243.34,-34.94 228.61,-38.56 215,-41.38"/><polygon fill="#000" stroke="#000" points="214.01 -38.01 204.87 -43.38 215.36 -44.88 214.01 -38.01"/></g></g></svg>